<svg id="Layer_1" style='fill:#222323' enable-background="new 0 0 512 512" height="512" viewBox="0 0 512 512" width="512" xmlns="http://www.w3.org/2000/svg"><path d="m412 351c-56.075 0-100-30.748-100-70s43.925-70 100-70 100 30.748 100 70-43.925 70-100 70zm0-100c-17.414 0-34.168 4.229-45.968 11.604-8.918 5.574-14.032 12.279-14.032 18.396s5.114 12.822 14.032 18.396c11.8 7.375 28.554 11.604 45.968 11.604s34.168-4.229 45.968-11.604c8.918-5.574 14.032-12.279 14.032-18.396s-5.114-12.822-14.032-18.396c-11.8-7.375-28.554-11.604-45.968-11.604zm90.731 233.198c8.946-6.479 10.945-18.984 4.466-27.93s-18.985-10.946-27.929-4.467c-37.006 26.803-99.531 26.803-136.537 0-8.945-6.479-21.451-4.479-27.929 4.467-6.479 8.945-4.479 21.45 4.466 27.93 24.754 17.928 57.332 27.802 91.732 27.802s66.978-9.874 91.731-27.802zm0-81c8.946-6.479 10.945-18.984 4.466-27.93s-18.985-10.946-27.929-4.467c-37.006 26.803-99.531 26.803-136.537 0-8.945-6.479-21.451-4.479-27.929 4.467-6.479 8.945-4.479 21.45 4.466 27.93 24.754 17.928 57.332 27.802 91.732 27.802s66.978-9.874 91.731-27.802zm-225.731 88.802c0-11.046-8.954-20-20-20h-137c-44.112 0-80-35.888-80-80v-76.271c0-38.78 17.475-74.781 47.943-98.771l71.43-56.244c8.084-6.366 10.02-17.828 4.472-26.495l-49.745-77.727c-3.09-4.828-1.291-9.245-.374-10.92.917-1.676 3.668-5.572 9.4-5.572h248.125c5.714 0 8.467 3.878 9.386 5.545s2.725 6.066-.328 10.896l-49.216 77.874c-5.426 8.586-3.555 19.877 4.352 26.253l29 23.387c8.598 6.934 21.189 5.585 28.124-3.014 6.934-8.598 5.584-21.189-3.013-28.123l-15.127-12.199 39.694-62.808c9.874-15.622 10.467-35.383 1.549-51.569s-25.94-26.242-44.421-26.242h-248.125c-18.541 0-35.588 10.104-44.49 26.369-8.901 16.265-8.222 36.069 1.773 51.686l39.969 62.451-57.18 45.024c-19.58 15.417-35.681 35.417-46.563 57.836-10.883 22.42-16.635 47.443-16.635 72.363v76.271c0 66.168 53.832 120 120 120h137c11.046 0 20-8.954 20-20zm17-347c0-11.046-8.954-20-20-20h-53c-11.046 0-20 8.954-20 20s8.954 20 20 20h53c11.046 0 20-8.954 20-20z"/></svg>